<?xml version="1.0" standalone="no"?>
<!DOCTYPE svg PUBLIC "-//W3C//DTD SVG 20010904//EN"
 "http://www.w3.org/TR/2001/REC-SVG-20010904/DTD/svg10.dtd">
<svg version="1.0" xmlns="http://www.w3.org/2000/svg"
 width="350.000000pt" height="350.000000pt" viewBox="0 0 350.000000 350.000000"
 preserveAspectRatio="xMidYMid meet">
<metadata>
Created by potrace 1.14, written by Peter Selinger 2001-2017
</metadata>
<g transform="translate(0.000000,350.000000) scale(0.100000,-0.100000)"
fill="#000000" stroke="none">
<path d="M0 1750 l0 -1750 1750 0 1750 0 0 1750 0 1750 -1750 0 -1750 0 0
-1750z m1992 1219 c124 -24 218 -58 338 -121 242 -125 415 -306 549 -575 49
-99 55 -106 175 -214 81 -72 126 -120 129 -136 4 -19 -26 5 -126 103 -71 71
-127 121 -124 111 4 -10 14 -43 23 -75 14 -52 25 -66 130 -167 71 -68 114
-118 114 -130 0 -14 -30 10 -111 90 l-111 110 7 -50 c9 -74 9 -73 111 -165 72
-64 94 -90 94 -109 0 -22 -12 -13 -97 72 l-98 97 3 -53 c3 -51 4 -53 93 -137
71 -67 89 -89 83 -103 -6 -16 -21 -5 -95 69 l-89 89 0 -49 c0 -48 1 -50 82
-125 65 -61 80 -81 74 -96 -6 -16 -18 -8 -84 58 -43 43 -81 74 -85 71 -4 -4
-7 -22 -7 -40 0 -27 12 -44 74 -104 56 -54 73 -76 69 -92 -5 -17 -16 -9 -84
58 l-78 77 -7 -37 c-6 -37 -4 -40 60 -105 57 -58 83 -101 59 -101 -4 0 -38 30
-75 67 l-67 67 -11 -28 c-5 -15 -10 -31 -10 -34 0 -4 29 -36 64 -71 56 -55 63
-67 54 -84 -9 -18 -15 -14 -78 48 l-67 67 -11 -30 c-10 -28 -7 -33 49 -88 64
-63 63 -62 49 -84 -8 -12 -20 -4 -69 44 -33 33 -62 58 -64 55 -29 -33 -26 -44
30 -101 49 -49 55 -59 43 -73 -12 -14 -20 -10 -70 40 l-57 56 -16 -24 c-15
-23 -14 -25 34 -73 27 -26 49 -54 49 -61 0 -30 -26 -21 -74 26 -50 50 -53 51
-69 33 -9 -10 -17 -22 -17 -27 0 -5 21 -28 48 -51 42 -38 46 -44 32 -58 -14
-15 -20 -11 -64 33 l-49 50 -20 -25 -20 -26 42 -42 c34 -35 39 -45 28 -54 -10
-9 -23 -2 -57 33 -41 42 -45 44 -62 28 -25 -23 -23 -32 19 -75 31 -32 34 -38
19 -44 -12 -5 -29 4 -55 30 -42 41 -51 43 -74 18 -16 -17 -15 -20 18 -52 31
-30 33 -34 17 -46 -15 -11 -22 -8 -52 22 -40 38 -52 41 -70 19 -11 -13 -9 -20
14 -44 27 -28 27 -30 8 -40 -16 -8 -24 -5 -47 19 -32 34 -42 36 -70 14 -20
-15 -20 -16 9 -39 28 -23 28 -23 6 -30 -16 -5 -29 0 -49 19 -25 24 -31 26 -55
15 -30 -14 -32 -21 -10 -40 14 -11 14 -13 -1 -22 -12 -6 -23 -3 -39 12 -26 24
-26 24 -61 11 -23 -9 -25 -13 -15 -25 10 -13 9 -15 -12 -15 -13 0 -29 5 -35
11 -11 11 -83 3 -83 -10 0 -3 -73 -5 -162 -4 -384 3 -677 126 -928 389 -225
235 -342 527 -342 854 0 327 117 619 342 854 303 317 717 449 1142 365z m1149
-861 c5 -10 8 -18 7 -18 -2 0 -39 37 -83 82 l-80 81 73 -63 c41 -36 78 -72 83
-82z"/>
<path d="M1522 2336 c-331 -63 -577 -233 -652 -451 -43 -124 -17 -367 59 -551
87 -211 256 -399 445 -496 58 -29 174 -68 246 -82 l35 -6 -45 47 -45 47 54
-48 55 -48 120 6 c85 3 142 11 191 26 305 96 539 349 632 685 34 125 43 328
18 406 -67 207 -272 367 -574 446 -82 22 -122 26 -281 29 -128 2 -207 -1 -258
-10z"/>
</g>
</svg>
